<?xml version="1.0" encoding="utf-8"?><svg xml:space="preserve" viewBox="0 0 100 100" y="0" x="0" xmlns="http://www.w3.org/2000/svg" id="圖層_1" version="1.1" width="200px" height="200px" xmlns:xlink="http://www.w3.org/1999/xlink" style="width:100%;height:100%;background-size:initial;background-repeat-y:initial;background-repeat-x:initial;background-position-y:initial;background-position-x:initial;background-origin:initial;background-color:initial;background-clip:initial;background-attachment:initial;animation-play-state:paused" ><g class="ldl-scale" style="transform-origin:50% 50%;transform:rotate(0deg) scale(0.8, 0.8);animation-play-state:paused" ><path fill="#d96d6d" d="M71.087 20.878C65.052 17.167 57.802 15 50 15c-20.995 0-38.016 15.67-38.016 35 0 13.162 7.895 24.621 19.558 30.597C37.01 83.398 43.301 85 50 85c20.995 0 38.016-15.67 38.016-35 0-12.147-6.724-22.846-16.929-29.122z" style="fill:rgb(217, 109, 109);animation-play-state:paused" ></path>
<path opacity=".2" d="M71.087 20.878a37.847 37.847 0 0 1 7.608 22.817c0 20.995-17.02 38.016-38.016 38.016-3.15 0-6.209-.39-9.136-1.113C37.01 83.399 43.301 85 50 85c20.995 0 38.016-15.67 38.016-35 0-12.147-6.724-22.846-16.929-29.122z" style="animation-play-state:paused" ></path>
<path stroke-miterlimit="10" stroke-linecap="round" stroke-width="5.703" stroke="#fff" fill="#fff" d="M23.826 36.808c-3.976 3.161-5.271 11.547-3.838 14.855" style="stroke:rgb(255, 255, 255);fill:rgb(255, 255, 255);animation-play-state:paused" ></path>
<circle r="3.284" fill="#fff" cy="61.045" cx="23.322" transform="rotate(-34.925 23.321 61.045)" style="fill:rgb(255, 255, 255);animation-play-state:paused" ></circle>
<metadata xmlns:d="https://loading.io/stock/" style="animation-play-state:paused" ><d:name style="animation-play-state:paused" >ball</d:name>


<d:tags style="animation-play-state:paused" >ball,fruit,tomato,cherry,apple,red</d:tags>


<d:license style="animation-play-state:paused" >by</d:license>


<d:slug style="animation-play-state:paused" >2it1c3</d:slug></metadata></g><!-- generated by https://loading.io/ --></svg>