<?xml version="1.0" encoding="utf-8"?><svg xml:space="preserve" viewBox="0 0 100 100" y="0" x="0" xmlns="http://www.w3.org/2000/svg" id="圖層_1" version="1.1" width="200px" height="200px" xmlns:xlink="http://www.w3.org/1999/xlink" style="width:100%;height:100%;background-size:initial;background-repeat-y:initial;background-repeat-x:initial;background-position-y:initial;background-position-x:initial;background-origin:initial;background-color:initial;background-clip:initial;background-attachment:initial;animation-play-state:paused" ><g class="ldl-scale" style="transform-origin:50% 50%;transform:rotate(0deg) scale(0.8, 0.8);animation-play-state:paused" ><path stroke-linecap="round" stroke-width="3.9" stroke="#333" fill="#e0e0e0" d="M82.3 89H17.7C14 89 11 86 11 82.3V17.7c0-3.7 3-6.7 6.7-6.7h64.6c3.7 0 6.7 3 6.7 6.7v64.6c0 3.7-3 6.7-6.7 6.7z" style="stroke:rgb(51, 51, 51);fill:rgb(224, 224, 224);animation-play-state:paused" ></path>
<path stroke-width="2.621" stroke="#333" fill="#666" d="M71.8 26.5H37c-1.5 0-2.2 1.8-1.2 2.8L48 41.5 26.5 63.2l10.3 10.3 21.6-21.6 12.2 12.2c1 1 2.8.3 2.8-1.2V28.2c.1-1-.6-1.7-1.6-1.7z" style="stroke:rgb(51, 51, 51);fill:rgb(102, 102, 102);animation-play-state:paused" ></path>
<metadata xmlns:d="https://loading.io/stock/" style="animation-play-state:paused" ><d:name style="animation-play-state:paused" >external link,share,open,new tab,out,arrow,leave,part</d:name>


<d:tags style="animation-play-state:paused" >cc-by,external link,share,open,new tab,out,arrow,leave,part</d:tags>


<d:license style="animation-play-state:paused" >by</d:license>


<d:slug style="animation-play-state:paused" >xsllti</d:slug></metadata></g><!-- generated by https://loading.io/ --></svg>